<?xml version="1.0" encoding="UTF-8" standalone="no" ?>
<!DOCTYPE svg PUBLIC "-//W3C//DTD SVG 1.1//EN" "http://www.w3.org/Graphics/SVG/1.1/DTD/svg11.dtd">
<svg xmlns="http://www.w3.org/2000/svg" xmlns:xlink="http://www.w3.org/1999/xlink" version="1.1" width="400" height="400" viewBox="0 0 400 400" xml:space="preserve">
<desc>Created with Fabric.js 3.6.2</desc>
<defs>
</defs>
<g transform="matrix(0.39 0 0 0.39 188.1 186.63)" id="Outline"  >
<path style="stroke: none; stroke-width: 1; stroke-dasharray: none; stroke-linecap: butt; stroke-dashoffset: 0; stroke-linejoin: miter; stroke-miterlimit: 4; fill: rgb(38,38,38); fill-rule: nonzero; opacity: 1;"  transform=" translate(-225.54, -221.77)" d="M 256 114.49 a 11.34 11.34 0 0 0 -11.34 11.34 V 251.55 l -57.58 58.14 a 11.34 11.34 0 1 0 16.11 16 l 60.87 -61.46 c 0.08 -0.08 0.15 -0.17 0.23 -0.26 s 0.34 -0.36 0.5 -0.55 s 0.21 -0.28 0.31 -0.43 a 4 4 0 0 0 0.34 -0.47 c 0.11 -0.16 0.2 -0.32 0.3 -0.48 s 0.19 -0.31 0.27 -0.47 s 0.17 -0.34 0.25 -0.51 s 0.16 -0.33 0.23 -0.5 l 0.18 -0.5 c 0.07 -0.18 0.13 -0.36 0.19 -0.54 s 0.09 -0.34 0.13 -0.51 s 0.1 -0.38 0.14 -0.57 s 0.05 -0.37 0.08 -0.56 s 0.06 -0.36 0.08 -0.54 s 0 -0.48 0 -0.72 s 0 -0.24 0 -0.37 V 125.83 A 11.34 11.34 0 0 0 256 114.49 Z" stroke-linecap="round" />
</g>
<g transform="matrix(0.39 0 0 0.39 200 199.69)" id="Outline"  >
<path style="stroke: none; stroke-width: 1; stroke-dasharray: none; stroke-linecap: butt; stroke-dashoffset: 0; stroke-linejoin: miter; stroke-miterlimit: 4; fill: rgb(38,38,38); fill-rule: nonzero; opacity: 1;"  transform=" translate(-256, -255.21)" d="M 256 58.65 c -108.38 0 -196.56 88.18 -196.56 196.56 S 147.62 451.77 256 451.77 S 452.56 363.6 452.56 255.21 S 364.38 58.65 256 58.65 Z m 0 370.45 c -95.88 0 -173.88 -78 -173.88 -173.89 S 160.12 81.33 256 81.33 s 173.88 78 173.88 173.88 S 351.88 429.1 256 429.1 Z" stroke-linecap="round" />
</g>
</svg>