<?xml version="1.0" encoding="UTF-8" standalone="no" ?>
<!DOCTYPE svg PUBLIC "-//W3C//DTD SVG 1.1//EN" "http://www.w3.org/Graphics/SVG/1.1/DTD/svg11.dtd">
<svg xmlns="http://www.w3.org/2000/svg" xmlns:xlink="http://www.w3.org/1999/xlink" version="1.1" width="400" height="400" viewBox="0 0 400 400" xml:space="preserve">
<desc>Created with Fabric.js 3.6.2</desc>
<defs>
</defs>
<g transform="matrix(0.46 0 0 0.46 200 200)" id="B_-_194_x2C__Chat_x2C__chatting_x2C__conversation_x2C__dialogue"  >
<path style="stroke: none; stroke-width: 1; stroke-dasharray: none; stroke-linecap: butt; stroke-dashoffset: 0; stroke-linejoin: miter; stroke-miterlimit: 4; fill: rgb(0,0,0); fill-rule: evenodd; opacity: 1;"  transform=" translate(-256, -256.01)" d="M 375.145 129.777 c 1.821 0.476 2.946 2.337 2.467 4.154 c -0.475 1.818 -2.381 2.899 -4.197 2.423 c -7.144 -1.86 -14.542 -3.332 -22.113 -4.328 c -7.36 -0.909 -15.022 -1.428 -22.857 -1.428 c -8.004 0 -15.838 0.52 -23.322 1.515 c -7.749 0.995 -15.234 2.51 -22.549 4.458 c -1.822 0.519 -3.684 -0.563 -4.156 -2.424 c -0.52 -1.817 0.566 -3.679 2.428 -4.155 c 7.484 -2.034 15.271 -3.592 23.369 -4.675 c 7.92 -1.038 16.01 -1.557 24.23 -1.557 c 8.012 0 15.932 0.52 23.719 1.515 C 360.082 126.271 367.791 127.828 375.145 129.777 M 449.891 175.262 c 1.21 1.429 1.039 3.592 -0.434 4.762 c -1.428 1.21 -3.592 1.039 -4.803 -0.433 c -3.986 -4.76 -8.445 -9.305 -13.378 -13.546 c -4.887 -4.242 -10.254 -8.18 -16.056 -11.772 c -1.559 -0.996 -2.078 -3.116 -1.078 -4.717 c 0.992 -1.601 3.11 -2.077 4.715 -1.082 c 6.02 3.722 11.682 7.877 16.879 12.378 C 440.932 165.309 445.647 170.156 449.891 175.262 z M 132.909 268.789 c -2.381 -2.38 -5.67 -3.852 -9.301 -3.852 c -3.638 0 -6.926 1.472 -9.307 3.852 c -2.381 2.336 -3.854 5.67 -3.854 9.305 c 0 3.549 1.434 6.795 3.723 9.176 l 0.132 0.13 c 2.381 2.38 5.669 3.852 9.307 3.852 c 3.631 0 6.919 -1.472 9.301 -3.852 c 2.381 -2.381 3.809 -5.67 3.809 -9.306 c 0 -3.593 -1.382 -6.795 -3.677 -9.175 L 132.909 268.789 z M 123.608 258.056 c 5.539 0 10.557 2.251 14.148 5.886 l 0.177 0.174 c 3.506 3.635 5.67 8.568 5.67 13.979 c 0 5.497 -2.257 10.517 -5.848 14.152 c -3.591 3.592 -8.61 5.843 -14.148 5.843 c -5.544 0 -10.563 -2.251 -14.154 -5.843 l -0.171 -0.217 c -3.506 -3.592 -5.716 -8.525 -5.716 -13.936 c 0 -5.54 2.295 -10.517 5.887 -14.152 C 113.045 260.307 118.064 258.056 123.608 258.056 z M 187.529 268.789 c -2.381 -2.38 -5.67 -3.852 -9.301 -3.852 c -3.637 0 -6.926 1.472 -9.307 3.852 c -2.381 2.336 -3.854 5.67 -3.854 9.305 c 0 3.636 1.473 6.925 3.854 9.306 c 2.381 2.38 5.67 3.852 9.307 3.852 c 3.631 0 6.92 -1.472 9.301 -3.852 c 2.38 -2.381 3.854 -5.67 3.854 -9.306 c 0 -3.593 -1.387 -6.795 -3.676 -9.175 L 187.529 268.789 z M 178.228 258.056 c 5.538 0 10.511 2.251 14.149 5.886 l 0.177 0.174 c 3.499 3.635 5.663 8.568 5.663 13.979 c 0 5.497 -2.204 10.517 -5.84 14.152 c -3.638 3.592 -8.611 5.843 -14.149 5.843 c -5.498 0 -10.517 -2.251 -14.109 -5.843 c -3.637 -3.636 -5.886 -8.655 -5.886 -14.152 c 0 -5.54 2.25 -10.517 5.841 -14.152 C 167.711 260.307 172.729 258.056 178.228 258.056 z M 288.46 206.207 c -2.342 -2.336 -5.671 -3.852 -9.308 -3.852 s -6.926 1.516 -9.307 3.852 c -2.382 2.381 -3.848 5.714 -3.848 9.349 s 1.466 6.925 3.848 9.305 c 2.381 2.38 5.67 3.852 9.307 3.852 s 6.966 -1.471 9.308 -3.852 c 2.381 -2.38 3.847 -5.67 3.847 -9.305 S 290.841 208.588 288.46 206.207 z M 279.152 195.517 c 5.538 0 10.518 2.251 14.154 5.886 c 3.631 3.636 5.881 8.613 5.881 14.152 c 0 5.496 -2.25 10.517 -5.881 14.108 c -3.637 3.636 -8.616 5.886 -14.154 5.886 s -10.518 -2.25 -14.154 -5.842 c -3.592 -3.636 -5.888 -8.656 -5.888 -14.152 c 0 -5.539 2.296 -10.517 5.888 -14.152 C 268.635 197.768 273.614 195.517 279.152 195.517 z M 343.119 206.207 c -2.421 -2.336 -5.71 -3.852 -9.348 -3.852 c -3.591 0 -6.88 1.516 -9.307 3.896 c -2.381 2.337 -3.854 5.67 -3.854 9.305 c 0 3.549 1.435 6.795 3.723 9.175 l 0.132 0.13 c 2.427 2.38 5.716 3.852 9.307 3.852 c 3.638 0 6.927 -1.471 9.348 -3.852 c 2.334 -2.38 3.808 -5.67 3.808 -9.305 S 345.453 208.588 343.119 206.207 z M 333.771 195.517 c 5.539 0 10.518 2.251 14.148 5.886 c 3.637 3.636 5.848 8.613 5.848 14.152 c 0 5.496 -2.211 10.517 -5.848 14.108 c -3.631 3.636 -8.609 5.886 -14.148 5.886 c -5.498 0 -10.517 -2.25 -14.154 -5.842 l -0.171 -0.217 c -3.506 -3.592 -5.671 -8.526 -5.671 -13.936 c 0 -5.539 2.251 -10.517 5.842 -14.152 C 323.255 197.768 328.273 195.517 333.771 195.517 z M 397.691 206.25 c -2.381 -2.38 -5.67 -3.896 -9.261 -3.896 c -3.632 0 -6.966 1.516 -9.347 3.896 c -2.335 2.337 -3.854 5.67 -3.854 9.305 c 0 3.549 1.426 6.795 3.723 9.175 l 0.131 0.13 c 2.381 2.38 5.715 3.852 9.347 3.852 c 3.591 0 6.88 -1.471 9.261 -3.852 c 2.428 -2.38 3.855 -5.67 3.855 -9.305 c 0 -3.593 -1.389 -6.839 -3.678 -9.175 L 397.691 206.25 z M 388.431 195.517 c 5.499 0 10.518 2.251 14.108 5.886 l 0.217 0.173 c 3.467 3.636 5.67 8.57 5.67 13.979 c 0 5.496 -2.249 10.517 -5.887 14.108 c -3.591 3.636 -8.609 5.886 -14.108 5.886 c -5.538 0 -10.558 -2.25 -14.194 -5.842 l -0.172 -0.217 c -3.504 -3.592 -5.669 -8.526 -5.669 -13.936 c 0 -5.539 2.249 -10.517 5.841 -14.152 C 377.873 197.768 382.893 195.517 388.431 195.517 z M 189.738 174.873 c -3.676 -0.259 -7.53 -0.389 -11.51 -0.389 c -38.222 0 -72.799 11.988 -97.768 31.248 c -24.718 19.13 -39.99 45.486 -39.99 74.527 c 0 16.705 5.064 32.502 14.022 46.525 c 9.347 14.628 22.982 27.352 39.682 37.22 c 1.302 0.692 2.039 2.163 1.776 3.722 l -7.788 39.038 l 61.539 -22.505 c 0.611 -0.217 1.216 -0.346 1.907 -0.217 c 4.367 0.649 8.787 1.125 13.24 1.472 c 4.329 0.347 8.788 0.476 13.378 0.476 c 29.257 0 56.349 -6.968 78.634 -18.912 c 21.206 -11.34 38.09 -27.18 48.299 -45.66 c -28.303 -4.458 -53.62 -15.32 -73.313 -30.511 c -12.378 -9.608 -22.593 -20.947 -29.861 -33.542 l -0.651 -1.083 v -0.043 l -0.644 -1.083 c -0.783 -1.515 -1.56 -2.986 -2.296 -4.457 l -0.131 -0.304 l -0.474 -0.996 l -0.349 -0.822 l -0.171 -0.346 l -0.434 -0.953 l -0.086 -0.216 c -0.822 -1.905 -1.604 -3.852 -2.295 -5.799 l -0.046 -0.13 l -0.21 -0.519 l -0.218 -0.694 l -0.302 -0.995 l -0.093 -0.173 l -0.256 -0.866 l -0.132 -0.347 l -0.303 -0.995 l -0.085 -0.217 l -0.349 -1.254 l -0.303 -1.212 l -0.039 -0.044 l -0.263 -1.167 l -0.086 -0.26 l -0.217 -0.996 l -0.085 -0.347 l -0.217 -0.908 l -0.086 -0.52 l -0.171 -0.735 l -0.178 -0.649 l -0.085 -0.606 l -0.04 -0.304 l -0.178 -0.952 l -0.171 -0.953 l -0.047 -0.302 l -0.17 -1.125 l -0.047 -0.13 l -0.171 -1.255 v -0.044 l -0.131 -1.255 l -0.041 -0.172 l -0.085 -1.083 v -0.043 l -0.132 -1.125 v -0.13 l -0.045 -0.476 l -0.085 -0.823 l -0.04 -0.649 l -0.046 -0.649 l -0.046 -0.779 v -0.476 l -0.039 -0.996 l -0.047 -1.472 v -0.129 v -1.298 v -0.346 v -0.303 v -0.346 v -0.304 v -0.172 v -0.174 v -0.346 v -0.304 v -0.302 l 0.047 -0.347 l 0 0 v -0.303 l 0.039 -0.346 v -0.303 v -0.346 v -0.304 l 0.046 -0.346 v -0.303 l 0.046 -0.303 v -0.303 v -0.043 l 0.04 -0.303 v -0.303 l 0.046 -0.347 v -0.303 l 0.04 -0.217 v -0.129 l 0.045 -0.303 v -0.346 l 0.04 -0.304 l 0.092 -0.952 l 0.04 -0.303 l 0.045 -0.303 c 0.086 -0.779 0.171 -1.515 0.257 -2.25 l 0.046 -0.303 c 1.125 -7.963 3.334 -15.711 6.492 -23.067 C 194.283 175.176 192.034 175.002 189.738 174.873 z M 199.954 185.823 l -0.046 0.13 l -0.04 0.173 l -0.091 0.26 l -0.257 0.865 l 0 0 l -0.085 0.304 c -0.48 1.601 -0.908 3.202 -1.302 4.803 v 0.13 c -0.474 2.121 -0.908 4.241 -1.211 6.362 v 0.087 l -0.217 1.297 v 0.044 l -0.132 1.212 v 0.086 l -0.04 0.173 l -0.045 0.304 v 0.302 l -0.04 0.304 l -0.047 0.26 l 0 0 v 0.302 l -0.085 0.606 v 0.304 v 0.13 l -0.046 0.173 l -0.086 1.168 l 0 0 v 0.304 l -0.04 0.909 v 0.129 l -0.045 0.13 v 0.91 v 0.303 l 0 0 l -0.047 0.303 v 0.303 v 0.302 l -0.039 0.304 v 0.13 v 0.173 v 0.303 v 0.303 v 0.26 v 0.346 v 1.211 v 0.13 l 0.039 1.039 l 0.047 0.303 v 0.909 l 0.045 0.476 l 0.04 0.735 v 0.607 l 0.046 0.087 l 0.086 1.255 v 0.432 l 0.085 0.866 l 0.047 0.347 l 0.125 0.996 v 0.173 l 0.132 1.168 l 0 0 l 0.177 1.212 l 0.04 0.13 l 0.171 1.039 v 0.26 l 0.046 0.13 c 0.132 0.822 0.303 1.645 0.435 2.466 v 0.044 l 0.52 2.336 l 0.04 0.26 l 0.085 0.303 l 0.264 0.995 l 0.045 0.174 l 0.256 1.082 l 0.047 0.087 l 0.302 1.126 v 0.086 c 0.474 1.645 0.993 3.29 1.56 4.891 l 0.039 0.173 l 0.171 0.477 l 0.302 0.778 c 0.435 1.256 0.915 2.424 1.434 3.636 l 0.04 0.087 l 0.435 1.039 l 0.085 0.217 c 1.085 2.423 2.25 4.848 3.552 7.184 l 0.04 0.086 l 0.605 1.04 v 0.086 c 1.775 3.073 3.769 6.146 5.886 9.089 l 0.047 0.043 c 4.282 5.931 9.261 11.513 14.93 16.663 l 0 0 c 2.118 1.947 4.328 3.808 6.624 5.626 l 0 0 l 0.427 0.346 l 0.737 0.563 l 0.349 0.259 l 0.821 0.649 l 0.218 0.174 l 0.993 0.692 l 0.085 0.086 l 1.085 0.779 l 0 0 l 1.125 0.823 l 0.131 0.042 l 1.211 0.865 l 0.868 0.606 l 0.342 0.26 l 0.132 0.087 l 1.17 0.735 l 0.645 0.433 l 0.605 0.39 l 0.52 0.347 l 0.783 0.476 l 1.296 0.779 l 0.263 0.217 l 1.04 0.562 l 0.171 0.13 l 1.17 0.649 l 0.04 0.044 l 1.21 0.692 l 0.092 0.043 l 1.296 0.735 l 1.04 0.563 l 0.342 0.173 l 0.914 0.476 l 0.473 0.26 l 0.776 0.39 l 0.612 0.304 l 0.645 0.346 l 0.736 0.39 l 0.52 0.216 l 0.869 0.433 l 0.388 0.217 l 1.038 0.477 l 0.258 0.13 l 1.217 0.52 l 0.086 0.086 l 1.295 0.563 v 0.044 l 1.303 0.52 l 0.171 0.086 l 1.171 0.519 l 0.303 0.13 l 0.992 0.39 l 0.475 0.174 l 0.867 0.389 l 0.605 0.218 l 0.086 0.042 l 2.947 1.126 l 0.427 0.173 l 1.085 0.39 l 0.303 0.086 l 1.211 0.434 l 0.177 0.086 l 1.382 0.434 v 0.043 l 1.427 0.434 l 0.086 0.042 l 1.559 0.52 l 1.171 0.346 l 0.389 0.13 l 1.559 0.477 l 0.868 0.26 l 0.729 0.173 l 0.736 0.217 l 0.869 0.259 c 2.118 0.564 4.242 1.126 6.406 1.602 h 0.039 l 1.428 0.347 h 0.217 l 1.257 0.304 l 0.388 0.087 l 1.125 0.216 l 0.52 0.13 c 2.775 0.52 5.584 0.995 8.399 1.428 l 0.171 0.044 l 1.559 0.216 l 0 0 c 7.92 1.082 16.102 1.645 24.455 1.645 c 4.585 0 9.045 -0.173 13.419 -0.477 c 4.413 -0.346 8.826 -0.822 13.194 -1.514 c 0.65 -0.086 1.342 0 1.907 0.26 l 61.546 22.462 l -7.749 -39.038 c -0.304 -1.516 0.474 -2.986 1.729 -3.68 c 16.707 -9.911 30.342 -22.635 39.688 -37.263 c 8.999 -14.022 14.023 -29.776 14.023 -46.482 c 0 -29.04 -15.279 -55.397 -39.991 -74.527 c -24.975 -19.303 -59.514 -31.247 -97.768 -31.247 c -38.215 0 -72.753 11.944 -97.728 31.247 c -13.931 10.777 -24.843 23.804 -31.724 38.302 M 204.32 174.787 l -0.039 0.086 c -0.565 1.169 -1.085 2.381 -1.605 3.594" stroke-linecap="round" />
</g>
</svg>