<?xml version="1.0" encoding="UTF-8" standalone="no" ?>
<!DOCTYPE svg PUBLIC "-//W3C//DTD SVG 1.1//EN" "http://www.w3.org/Graphics/SVG/1.1/DTD/svg11.dtd">
<svg xmlns="http://www.w3.org/2000/svg" xmlns:xlink="http://www.w3.org/1999/xlink" version="1.1" width="400" height="400" viewBox="0 0 400 400" xml:space="preserve">
<desc>Created with Fabric.js 3.6.2</desc>
<defs>
</defs>
<g transform="matrix(10 0 0 10 200 200)"  >
<path style="stroke: none; stroke-width: 1; stroke-dasharray: none; stroke-linecap: butt; stroke-dashoffset: 0; stroke-linejoin: miter; stroke-miterlimit: 4; fill: rgb(0,0,0); fill-rule: nonzero; opacity: 1;"  transform=" translate(-12, -12.01)" d="M 3 14 h 2 v 7 a 1 1 0 0 0 1 1 h 12 a 1 1 0 0 0 1 -1 v -7 h 2 a 0.998 0.998 0 0 0 0.913 -0.593 a 0.998 0.998 0 0 0 -0.17 -1.076 l -9 -10 c -0.379 -0.422 -1.107 -0.422 -1.486 0 l -9 10 A 1 1 0 0 0 3 14 z m 5.653 -2.359 a 2.224 2.224 0 0 1 3.125 0 l 0.224 0.22 l 0.223 -0.22 a 2.225 2.225 0 0 1 3.126 0 a 2.13 2.13 0 0 1 0 3.07 L 12.002 18 l -3.349 -3.289 a 2.13 2.13 0 0 1 0 -3.07 z" stroke-linecap="round" />
</g>
</svg>