<?xml version="1.0" encoding="UTF-8" standalone="no" ?>
<!DOCTYPE svg PUBLIC "-//W3C//DTD SVG 1.1//EN" "http://www.w3.org/Graphics/SVG/1.1/DTD/svg11.dtd">
<svg xmlns="http://www.w3.org/2000/svg" xmlns:xlink="http://www.w3.org/1999/xlink" version="1.1" width="400" height="400" viewBox="0 0 400 400" xml:space="preserve">
<desc>Created with Fabric.js 3.6.2</desc>
<defs>
</defs>
<g transform="matrix(0.57 0 0 0.57 200 200)" id="Layer_1"  >
<path style="stroke: none; stroke-width: 1; stroke-dasharray: none; stroke-linecap: butt; stroke-dashoffset: 0; stroke-linejoin: miter; stroke-miterlimit: 4; fill: rgb(0,0,0); fill-rule: nonzero; opacity: 1;"  transform=" translate(-255.94, -255.71)" d="M 423.4 358 c -43.8 -6.7 -47.1 -13.1 -47.1 -13.1 c 9 -54.1 -18.9 -122.6 -64.6 -159.7 c -60.7 -49.3 -153.1 -13.5 -225 -88.5 c -16.8 -17.5 -7 196.3 83 277.3 c 65.8 59.2 143.3 41 164.6 31.3 c 19.3 -8.8 32.8 -24.9 32.8 -24.9 c 35.1 10.8 52.5 10.2 52.5 10.2 C 431.9 392.1 438.1 360.2 423.4 358 z M 343.2 361.6 c -115.3 -34.1 -202 -153.8 -202 -153.8 s 76.1 89.8 210.2 133.5 C 351.6 348.1 347.6 357.8 343.2 361.6 z" stroke-linecap="round" />
</g>
</svg>